<svg width="192" height="129" viewBox="0 0 192 129" fill="none" xmlns="http://www.w3.org/2000/svg">
<path d="M14.5898 114.504V120.75C14.3789 121.062 14.043 121.414 13.582 121.805C13.1211 122.188 12.4844 122.523 11.6719 122.812C10.8672 123.094 9.82812 123.234 8.55469 123.234C7.51562 123.234 6.55859 123.055 5.68359 122.695C4.81641 122.328 4.0625 121.797 3.42188 121.102C2.78906 120.398 2.29688 119.547 1.94531 118.547C1.60156 117.539 1.42969 116.398 1.42969 115.125V113.801C1.42969 112.527 1.57812 111.391 1.875 110.391C2.17969 109.391 2.625 108.543 3.21094 107.848C3.79688 107.145 4.51562 106.613 5.36719 106.254C6.21875 105.887 7.19531 105.703 8.29688 105.703C9.60156 105.703 10.6914 105.93 11.5664 106.383C12.4492 106.828 13.1367 107.445 13.6289 108.234C14.1289 109.023 14.4492 109.922 14.5898 110.93H12.3281C12.2266 110.312 12.0234 109.75 11.7188 109.242C11.4219 108.734 10.9961 108.328 10.4414 108.023C9.88672 107.711 9.17188 107.555 8.29688 107.555C7.50781 107.555 6.82422 107.699 6.24609 107.988C5.66797 108.277 5.19141 108.691 4.81641 109.23C4.44141 109.77 4.16016 110.422 3.97266 111.188C3.79297 111.953 3.70312 112.816 3.70312 113.777V115.125C3.70312 116.109 3.81641 116.988 4.04297 117.762C4.27734 118.535 4.60938 119.195 5.03906 119.742C5.46875 120.281 5.98047 120.691 6.57422 120.973C7.17578 121.254 7.83984 121.395 8.56641 121.395C9.37109 121.395 10.0234 121.328 10.5234 121.195C11.0234 121.055 11.4141 120.891 11.6953 120.703C11.9766 120.508 12.1914 120.324 12.3398 120.152V116.332H8.39062V114.504H14.5898ZM20.1797 112.312V123H18.0117V110.32H20.1211L20.1797 112.312ZM24.1406 110.25L24.1289 112.266C23.9492 112.227 23.7773 112.203 23.6133 112.195C23.457 112.18 23.2773 112.172 23.0742 112.172C22.5742 112.172 22.1328 112.25 21.75 112.406C21.3672 112.562 21.043 112.781 20.7773 113.062C20.5117 113.344 20.3008 113.68 20.1445 114.07C19.9961 114.453 19.8984 114.875 19.8516 115.336L19.2422 115.688C19.2422 114.922 19.3164 114.203 19.4648 113.531C19.6211 112.859 19.8594 112.266 20.1797 111.75C20.5 111.227 20.9062 110.82 21.3984 110.531C21.8984 110.234 22.4922 110.086 23.1797 110.086C23.3359 110.086 23.5156 110.105 23.7188 110.145C23.9219 110.176 24.0625 110.211 24.1406 110.25ZM25.3359 116.801V116.531C25.3359 115.617 25.4688 114.77 25.7344 113.988C26 113.199 26.3828 112.516 26.8828 111.938C27.3828 111.352 27.9883 110.898 28.6992 110.578C29.4102 110.25 30.207 110.086 31.0898 110.086C31.9805 110.086 32.7812 110.25 33.4922 110.578C34.2109 110.898 34.8203 111.352 35.3203 111.938C35.8281 112.516 36.2148 113.199 36.4805 113.988C36.7461 114.77 36.8789 115.617 36.8789 116.531V116.801C36.8789 117.715 36.7461 118.562 36.4805 119.344C36.2148 120.125 35.8281 120.809 35.3203 121.395C34.8203 121.973 34.2148 122.426 33.5039 122.754C32.8008 123.074 32.0039 123.234 31.1133 123.234C30.2227 123.234 29.4219 123.074 28.7109 122.754C28 122.426 27.3906 121.973 26.8828 121.395C26.3828 120.809 26 120.125 25.7344 119.344C25.4688 118.562 25.3359 117.715 25.3359 116.801ZM27.5039 116.531V116.801C27.5039 117.434 27.5781 118.031 27.7266 118.594C27.875 119.148 28.0977 119.641 28.3945 120.07C28.6992 120.5 29.0781 120.84 29.5312 121.09C29.9844 121.332 30.5117 121.453 31.1133 121.453C31.707 121.453 32.2266 121.332 32.6719 121.09C33.125 120.84 33.5 120.5 33.7969 120.07C34.0938 119.641 34.3164 119.148 34.4648 118.594C34.6211 118.031 34.6992 117.434 34.6992 116.801V116.531C34.6992 115.906 34.6211 115.316 34.4648 114.762C34.3164 114.199 34.0898 113.703 33.7852 113.273C33.4883 112.836 33.1133 112.492 32.6602 112.242C32.2148 111.992 31.6914 111.867 31.0898 111.867C30.4961 111.867 29.9727 111.992 29.5195 112.242C29.0742 112.492 28.6992 112.836 28.3945 113.273C28.0977 113.703 27.875 114.199 27.7266 114.762C27.5781 115.316 27.5039 115.906 27.5039 116.531ZM42.8086 120.75L46.0664 110.32H47.4961L47.2148 112.395L43.8984 123H42.5039L42.8086 120.75ZM40.6172 110.32L43.3945 120.867L43.5938 123H42.1289L38.4492 110.32H40.6172ZM50.6133 120.785L53.2617 110.32H55.418L51.7383 123H50.2852L50.6133 120.785ZM47.8125 110.32L51 120.574L51.3633 123H49.9805L46.5703 112.371L46.2891 110.32H47.8125ZM73.6875 105.938H75.9375V117.48C75.9375 118.762 75.6523 119.828 75.082 120.68C74.5117 121.531 73.7539 122.172 72.8086 122.602C71.8711 123.023 70.8516 123.234 69.75 123.234C68.5938 123.234 67.5469 123.023 66.6094 122.602C65.6797 122.172 64.9414 121.531 64.3945 120.68C63.8555 119.828 63.5859 118.762 63.5859 117.48V105.938H65.8242V117.48C65.8242 118.371 65.9883 119.105 66.3164 119.684C66.6445 120.262 67.1016 120.691 67.6875 120.973C68.2812 121.254 68.9688 121.395 69.75 121.395C70.5391 121.395 71.2266 121.254 71.8125 120.973C72.4062 120.691 72.8672 120.262 73.1953 119.684C73.5234 119.105 73.6875 118.371 73.6875 117.48V105.938ZM81.3281 112.758V127.875H79.1484V110.32H81.1406L81.3281 112.758ZM89.8711 116.555V116.801C89.8711 117.723 89.7617 118.578 89.543 119.367C89.3242 120.148 89.0039 120.828 88.582 121.406C88.168 121.984 87.6562 122.434 87.0469 122.754C86.4375 123.074 85.7383 123.234 84.9492 123.234C84.1445 123.234 83.4336 123.102 82.8164 122.836C82.1992 122.57 81.6758 122.184 81.2461 121.676C80.8164 121.168 80.4727 120.559 80.2148 119.848C79.9648 119.137 79.793 118.336 79.6992 117.445V116.133C79.793 115.195 79.9688 114.355 80.2266 113.613C80.4844 112.871 80.8242 112.238 81.2461 111.715C81.6758 111.184 82.1953 110.781 82.8047 110.508C83.4141 110.227 84.1172 110.086 84.9141 110.086C85.7109 110.086 86.418 110.242 87.0352 110.555C87.6523 110.859 88.1719 111.297 88.5938 111.867C89.0156 112.438 89.332 113.121 89.543 113.918C89.7617 114.707 89.8711 115.586 89.8711 116.555ZM87.6914 116.801V116.555C87.6914 115.922 87.625 115.328 87.4922 114.773C87.3594 114.211 87.1523 113.719 86.8711 113.297C86.5977 112.867 86.2461 112.531 85.8164 112.289C85.3867 112.039 84.875 111.914 84.2812 111.914C83.7344 111.914 83.2578 112.008 82.8516 112.195C82.4531 112.383 82.1133 112.637 81.832 112.957C81.5508 113.27 81.3203 113.629 81.1406 114.035C80.9688 114.434 80.8398 114.848 80.7539 115.277V118.312C80.9102 118.859 81.1289 119.375 81.4102 119.859C81.6914 120.336 82.0664 120.723 82.5352 121.02C83.0039 121.309 83.5938 121.453 84.3047 121.453C84.8906 121.453 85.3945 121.332 85.8164 121.09C86.2461 120.84 86.5977 120.5 86.8711 120.07C87.1523 119.641 87.3594 119.148 87.4922 118.594C87.625 118.031 87.6914 117.434 87.6914 116.801ZM99.7031 105.938L104.133 114.504L108.574 105.938H111.141L105.258 116.625V123H102.996V116.625L97.1133 105.938H99.7031ZM111.656 116.801V116.531C111.656 115.617 111.789 114.77 112.055 113.988C112.32 113.199 112.703 112.516 113.203 111.938C113.703 111.352 114.309 110.898 115.02 110.578C115.73 110.25 116.527 110.086 117.41 110.086C118.301 110.086 119.102 110.25 119.812 110.578C120.531 110.898 121.141 111.352 121.641 111.938C122.148 112.516 122.535 113.199 122.801 113.988C123.066 114.77 123.199 115.617 123.199 116.531V116.801C123.199 117.715 123.066 118.562 122.801 119.344C122.535 120.125 122.148 120.809 121.641 121.395C121.141 121.973 120.535 122.426 119.824 122.754C119.121 123.074 118.324 123.234 117.434 123.234C116.543 123.234 115.742 123.074 115.031 122.754C114.32 122.426 113.711 121.973 113.203 121.395C112.703 120.809 112.32 120.125 112.055 119.344C111.789 118.562 111.656 117.715 111.656 116.801ZM113.824 116.531V116.801C113.824 117.434 113.898 118.031 114.047 118.594C114.195 119.148 114.418 119.641 114.715 120.07C115.02 120.5 115.398 120.84 115.852 121.09C116.305 121.332 116.832 121.453 117.434 121.453C118.027 121.453 118.547 121.332 118.992 121.09C119.445 120.84 119.82 120.5 120.117 120.07C120.414 119.641 120.637 119.148 120.785 118.594C120.941 118.031 121.02 117.434 121.02 116.801V116.531C121.02 115.906 120.941 115.316 120.785 114.762C120.637 114.199 120.41 113.703 120.105 113.273C119.809 112.836 119.434 112.492 118.98 112.242C118.535 111.992 118.012 111.867 117.41 111.867C116.816 111.867 116.293 111.992 115.84 112.242C115.395 112.492 115.02 112.836 114.715 113.273C114.418 113.703 114.195 114.199 114.047 114.762C113.898 115.316 113.824 115.906 113.824 116.531ZM133.676 120.07V110.32H135.855V123H133.781L133.676 120.07ZM134.086 117.398L134.988 117.375C134.988 118.219 134.898 119 134.719 119.719C134.547 120.43 134.266 121.047 133.875 121.57C133.484 122.094 132.973 122.504 132.34 122.801C131.707 123.09 130.938 123.234 130.031 123.234C129.414 123.234 128.848 123.145 128.332 122.965C127.824 122.785 127.387 122.508 127.02 122.133C126.652 121.758 126.367 121.27 126.164 120.668C125.969 120.066 125.871 119.344 125.871 118.5V110.32H128.039V118.523C128.039 119.094 128.102 119.566 128.227 119.941C128.359 120.309 128.535 120.602 128.754 120.82C128.98 121.031 129.23 121.18 129.504 121.266C129.785 121.352 130.074 121.395 130.371 121.395C131.293 121.395 132.023 121.219 132.562 120.867C133.102 120.508 133.488 120.027 133.723 119.426C133.965 118.816 134.086 118.141 134.086 117.398ZM141.328 112.312V123H139.16V110.32H141.27L141.328 112.312ZM145.289 110.25L145.277 112.266C145.098 112.227 144.926 112.203 144.762 112.195C144.605 112.18 144.426 112.172 144.223 112.172C143.723 112.172 143.281 112.25 142.898 112.406C142.516 112.562 142.191 112.781 141.926 113.062C141.66 113.344 141.449 113.68 141.293 114.07C141.145 114.453 141.047 114.875 141 115.336L140.391 115.688C140.391 114.922 140.465 114.203 140.613 113.531C140.77 112.859 141.008 112.266 141.328 111.75C141.648 111.227 142.055 110.82 142.547 110.531C143.047 110.234 143.641 110.086 144.328 110.086C144.484 110.086 144.664 110.105 144.867 110.145C145.07 110.176 145.211 110.211 145.289 110.25ZM163.922 121.16V123H155.391V121.16H163.922ZM155.836 105.938V123H153.574V105.938H155.836ZM168.539 110.32V123H166.359V110.32H168.539ZM166.195 106.957C166.195 106.605 166.301 106.309 166.512 106.066C166.73 105.824 167.051 105.703 167.473 105.703C167.887 105.703 168.203 105.824 168.422 106.066C168.648 106.309 168.762 106.605 168.762 106.957C168.762 107.293 168.648 107.582 168.422 107.824C168.203 108.059 167.887 108.176 167.473 108.176C167.051 108.176 166.73 108.059 166.512 107.824C166.301 107.582 166.195 107.293 166.195 106.957ZM175.254 123H173.086V108.984C173.086 108.07 173.25 107.301 173.578 106.676C173.914 106.043 174.395 105.566 175.02 105.246C175.645 104.918 176.387 104.754 177.246 104.754C177.496 104.754 177.746 104.77 177.996 104.801C178.254 104.832 178.504 104.879 178.746 104.941L178.629 106.711C178.465 106.672 178.277 106.645 178.066 106.629C177.863 106.613 177.66 106.605 177.457 106.605C176.996 106.605 176.598 106.699 176.262 106.887C175.934 107.066 175.684 107.332 175.512 107.684C175.34 108.035 175.254 108.469 175.254 108.984V123ZM177.949 110.32V111.984H171.082V110.32H177.949ZM185.344 123.234C184.461 123.234 183.66 123.086 182.941 122.789C182.23 122.484 181.617 122.059 181.102 121.512C180.594 120.965 180.203 120.316 179.93 119.566C179.656 118.816 179.52 117.996 179.52 117.105V116.613C179.52 115.582 179.672 114.664 179.977 113.859C180.281 113.047 180.695 112.359 181.219 111.797C181.742 111.234 182.336 110.809 183 110.52C183.664 110.23 184.352 110.086 185.062 110.086C185.969 110.086 186.75 110.242 187.406 110.555C188.07 110.867 188.613 111.305 189.035 111.867C189.457 112.422 189.77 113.078 189.973 113.836C190.176 114.586 190.277 115.406 190.277 116.297V117.27H180.809V115.5H188.109V115.336C188.078 114.773 187.961 114.227 187.758 113.695C187.562 113.164 187.25 112.727 186.82 112.383C186.391 112.039 185.805 111.867 185.062 111.867C184.57 111.867 184.117 111.973 183.703 112.184C183.289 112.387 182.934 112.691 182.637 113.098C182.34 113.504 182.109 114 181.945 114.586C181.781 115.172 181.699 115.848 181.699 116.613V117.105C181.699 117.707 181.781 118.273 181.945 118.805C182.117 119.328 182.363 119.789 182.684 120.188C183.012 120.586 183.406 120.898 183.867 121.125C184.336 121.352 184.867 121.465 185.461 121.465C186.227 121.465 186.875 121.309 187.406 120.996C187.938 120.684 188.402 120.266 188.801 119.742L190.113 120.785C189.84 121.199 189.492 121.594 189.07 121.969C188.648 122.344 188.129 122.648 187.512 122.883C186.902 123.117 186.18 123.234 185.344 123.234Z" fill="#237700"/>
<path d="M85.0366 26.5416C82.2352 24.7214 78.2882 23.8113 73.1958 23.8113C68.0162 23.8113 63.4716 24.8622 59.562 26.9533C55.6524 29.0444 52.963 31.363 51.4938 33.8767C50.0246 36.3903 48.4434 40.4316 46.7251 45.9898L41.3961 63.2927C40.1635 67.3015 39.404 70.3027 39.1176 72.3071C38.8312 74.3116 39.0678 76.2185 39.8273 78.0387C40.5868 79.8589 42.056 81.3866 44.2225 82.6217C46.389 83.8569 48.9414 84.4745 51.8674 84.4745C54.3202 84.4745 56.5863 84.0302 58.678 83.131C60.7573 82.2317 62.6748 80.8882 64.4054 79.0896L64.7292 83.261H75.6611L85.2856 52.003H64.9284L62.2016 60.8549H65.7128L63.5837 67.7566C62.7495 70.4653 61.9651 72.2855 61.218 73.2281C60.471 74.1707 59.4749 74.6258 58.2049 74.6258C57.0469 74.6258 56.3995 74.2141 56.275 73.3798C56.138 72.5564 56.4867 70.8336 57.2835 68.2225L65.8871 40.2799C66.8085 37.3112 67.568 35.4585 68.1656 34.7434C68.7757 34.0283 69.6099 33.66 70.6932 33.66C71.9383 33.66 72.5857 34.0825 72.6604 34.9168C72.7351 35.7511 72.2495 37.8421 71.2285 41.1792L69.5975 46.4665H86.9914L87.7634 43.9529C89.2326 39.1856 89.8427 35.5452 89.5937 33.0424C89.3571 30.5288 87.8381 28.3618 85.0366 26.5416Z" fill="#237700"/>
<path d="M147.889 11.5571L138.451 0.343262L122.103 11.5571H126.635L109.279 67.9298C108.382 70.8335 107.66 72.6754 107.1 73.4555C106.539 74.2355 105.718 74.6256 104.609 74.6256C103.638 74.6256 103.115 74.268 103.016 73.5638C102.916 72.8595 103.252 71.2343 104.037 68.6882L117.484 25.0246H100.09L89.4816 59.4788C87.4646 66.0445 86.2693 70.3567 85.9082 72.4045C85.5471 74.4522 85.8459 76.4025 86.7922 78.2444C87.7385 80.0863 89.5688 81.5923 92.2706 82.7407C94.9725 83.8892 98.3218 84.4634 102.319 84.4634C105.929 84.4634 109.216 83.9759 112.167 83.0116C115.131 82.0365 117.708 80.6171 119.912 78.7319C122.115 76.8467 123.659 75.0156 124.543 73.2279C125.427 71.4402 126.548 68.3415 127.905 63.9318L144.029 11.5463H147.889V11.5571Z" fill="#237700"/>
<path d="M85.0366 26.5416C82.2352 24.7214 78.2882 23.8113 73.1958 23.8113C68.0162 23.8113 63.4716 24.8622 59.562 26.9533C55.6524 29.0444 52.963 31.363 51.4938 33.8767C50.0246 36.3903 48.4434 40.4316 46.7251 45.9898L41.3961 63.2927C40.1635 67.3015 39.404 70.3027 39.1176 72.3071C38.8312 74.3116 39.0678 76.2185 39.8273 78.0387C40.5868 79.8589 42.056 81.3866 44.2225 82.6217C46.389 83.8569 48.9414 84.4745 51.8674 84.4745C54.3202 84.4745 56.5863 84.0302 58.678 83.131C60.7573 82.2317 62.6748 80.8882 64.4054 79.0896L64.7292 83.261H75.6611L85.2856 52.003H64.9284L62.2016 60.8549H65.7128L63.5837 67.7566C62.7495 70.4653 61.9651 72.2855 61.218 73.2281C60.471 74.1707 59.4749 74.6258 58.2049 74.6258C57.0469 74.6258 56.3995 74.2141 56.275 73.3798C56.138 72.5564 56.4867 70.8336 57.2835 68.2225L65.8871 40.2799C66.8085 37.3112 67.568 35.4585 68.1656 34.7434C68.7757 34.0283 69.6099 33.66 70.6932 33.66C71.9383 33.66 72.5857 34.0825 72.6604 34.9168C72.7351 35.7511 72.2495 37.8421 71.2285 41.1792L69.5975 46.4665H86.9914L87.7634 43.9529C89.2326 39.1856 89.8427 35.5452 89.5937 33.0424C89.3571 30.5288 87.8381 28.3618 85.0366 26.5416Z" fill="#237700"/>
<path d="M147.889 11.5571L138.451 0.343262L122.103 11.5571H126.635L109.279 67.9298C108.382 70.8335 107.66 72.6754 107.1 73.4555C106.539 74.2355 105.718 74.6256 104.609 74.6256C103.638 74.6256 103.115 74.268 103.016 73.5638C102.916 72.8595 103.252 71.2343 104.037 68.6882L117.484 25.0246H100.09L89.4816 59.4788C87.4646 66.0445 86.2693 70.3567 85.9082 72.4045C85.5471 74.4522 85.8459 76.4025 86.7922 78.2444C87.7385 80.0863 89.5688 81.5923 92.2706 82.7407C94.9725 83.8892 98.3218 84.4634 102.319 84.4634C105.929 84.4634 109.216 83.9759 112.167 83.0116C115.131 82.0365 117.708 80.6171 119.912 78.7319C122.115 76.8467 123.659 75.0156 124.543 73.2279C125.427 71.4402 126.548 68.3415 127.905 63.9318L144.029 11.5463H147.889V11.5571Z" fill="#237700"/>
</svg>
