<svg width="205" height="130" viewBox="0 0 205 130" fill="none" xmlns="http://www.w3.org/2000/svg">
<path d="M14.0455 112C13.858 111.426 13.6108 110.912 13.304 110.457C13.0028 109.997 12.642 109.605 12.2216 109.281C11.8068 108.957 11.3352 108.71 10.8068 108.54C10.2784 108.369 9.69886 108.284 9.06818 108.284C8.03409 108.284 7.09375 108.551 6.24716 109.085C5.40057 109.619 4.72727 110.406 4.22727 111.446C3.72727 112.486 3.47727 113.761 3.47727 115.273C3.47727 116.784 3.73011 118.06 4.2358 119.099C4.74148 120.139 5.42614 120.926 6.28977 121.46C7.15341 121.994 8.125 122.261 9.20455 122.261C10.2045 122.261 11.0852 122.048 11.8466 121.622C12.6136 121.19 13.2102 120.582 13.6364 119.798C14.0682 119.009 14.2841 118.08 14.2841 117.011L14.9318 117.148H9.68182V115.273H16.3295V117.148C16.3295 118.585 16.0227 119.835 15.4091 120.898C14.8011 121.96 13.9602 122.784 12.8864 123.369C11.8182 123.949 10.5909 124.239 9.20455 124.239C7.65909 124.239 6.30114 123.875 5.13068 123.148C3.96591 122.42 3.05682 121.386 2.40341 120.045C1.75568 118.705 1.43182 117.114 1.43182 115.273C1.43182 113.892 1.61648 112.651 1.9858 111.548C2.3608 110.44 2.8892 109.497 3.57102 108.719C4.25284 107.94 5.05966 107.344 5.99148 106.929C6.9233 106.514 7.94886 106.307 9.06818 106.307C9.98864 106.307 10.8466 106.446 11.642 106.724C12.4432 106.997 13.1562 107.386 13.7812 107.892C14.4119 108.392 14.9375 108.991 15.358 109.69C15.7784 110.384 16.0682 111.153 16.2273 112H14.0455ZM19.6768 124V110.909H21.62V112.886H21.7564C21.995 112.239 22.4268 111.713 23.0518 111.31C23.6768 110.906 24.3814 110.705 25.1655 110.705C25.3132 110.705 25.4979 110.707 25.7195 110.713C25.9411 110.719 26.1087 110.727 26.2223 110.739V112.784C26.1541 112.767 25.9979 112.741 25.7536 112.707C25.5149 112.668 25.2621 112.648 24.995 112.648C24.3587 112.648 23.7905 112.781 23.2905 113.048C22.7962 113.31 22.4041 113.673 22.1143 114.139C21.8303 114.599 21.6882 115.125 21.6882 115.716V124H19.6768ZM33.5263 124.273C32.3445 124.273 31.3075 123.991 30.4155 123.429C29.5291 122.866 28.8359 122.08 28.3359 121.068C27.8416 120.057 27.5945 118.875 27.5945 117.523C27.5945 116.159 27.8416 114.969 28.3359 113.952C28.8359 112.935 29.5291 112.145 30.4155 111.582C31.3075 111.02 32.3445 110.739 33.5263 110.739C34.7081 110.739 35.7422 111.02 36.6286 111.582C37.5206 112.145 38.2138 112.935 38.7081 113.952C39.2081 114.969 39.4581 116.159 39.4581 117.523C39.4581 118.875 39.2081 120.057 38.7081 121.068C38.2138 122.08 37.5206 122.866 36.6286 123.429C35.7422 123.991 34.7081 124.273 33.5263 124.273ZM33.5263 122.466C34.424 122.466 35.1626 122.236 35.7422 121.776C36.3217 121.315 36.7507 120.71 37.0291 119.96C37.3075 119.21 37.4467 118.398 37.4467 117.523C37.4467 116.648 37.3075 115.832 37.0291 115.077C36.7507 114.321 36.3217 113.71 35.7422 113.244C35.1626 112.778 34.424 112.545 33.5263 112.545C32.6286 112.545 31.8899 112.778 31.3104 113.244C30.7308 113.71 30.3018 114.321 30.0234 115.077C29.745 115.832 29.6058 116.648 29.6058 117.523C29.6058 118.398 29.745 119.21 30.0234 119.96C30.3018 120.71 30.7308 121.315 31.3104 121.776C31.8899 122.236 32.6286 122.466 33.5263 122.466ZM45.049 124L41.0604 110.909H43.174L46.0036 120.932H46.1399L48.9354 110.909H51.0831L53.8445 120.898H53.9808L56.8104 110.909H58.924L54.9354 124H52.9581L50.0945 113.943H49.8899L47.0263 124H45.049ZM80.0604 106.545H82.174V118.102C82.174 119.295 81.8928 120.361 81.3303 121.298C80.7734 122.23 79.9865 122.966 78.9695 123.506C77.9524 124.04 76.7592 124.307 75.3899 124.307C74.0206 124.307 72.8274 124.04 71.8104 123.506C70.7933 122.966 70.0036 122.23 69.4411 121.298C68.8842 120.361 68.6058 119.295 68.6058 118.102V106.545H70.7195V117.932C70.7195 118.784 70.907 119.543 71.282 120.207C71.657 120.866 72.1911 121.386 72.8842 121.767C73.5831 122.142 74.4183 122.33 75.3899 122.33C76.3615 122.33 77.1967 122.142 77.8956 121.767C78.5945 121.386 79.1286 120.866 79.4979 120.207C79.8729 119.543 80.0604 118.784 80.0604 117.932V106.545ZM86.1222 128.909V110.909H88.0653V112.989H88.304C88.4517 112.761 88.6563 112.472 88.9176 112.119C89.1847 111.761 89.5653 111.443 90.0597 111.165C90.5597 110.881 91.2358 110.739 92.0881 110.739C93.1903 110.739 94.1619 111.014 95.0028 111.565C95.8438 112.116 96.5 112.898 96.9716 113.909C97.4432 114.92 97.679 116.114 97.679 117.489C97.679 118.875 97.4432 120.077 96.9716 121.094C96.5 122.105 95.8466 122.889 95.0114 123.446C94.1761 123.997 93.2131 124.273 92.1222 124.273C91.2813 124.273 90.608 124.134 90.1023 123.855C89.5966 123.571 89.2074 123.25 88.9347 122.892C88.6619 122.528 88.4517 122.227 88.304 121.989H88.1335V128.909H86.1222ZM88.0994 117.455C88.0994 118.443 88.2443 119.315 88.5341 120.071C88.8239 120.821 89.2472 121.409 89.804 121.835C90.3608 122.256 91.0426 122.466 91.8494 122.466C92.6903 122.466 93.392 122.244 93.9545 121.801C94.5227 121.352 94.9489 120.75 95.233 119.994C95.5227 119.233 95.6676 118.386 95.6676 117.455C95.6676 116.534 95.5256 115.705 95.2415 114.966C94.9631 114.222 94.5398 113.634 93.9716 113.202C93.4091 112.764 92.7017 112.545 91.8494 112.545C91.0313 112.545 90.3438 112.753 89.7869 113.168C89.2301 113.577 88.8097 114.151 88.5256 114.889C88.2415 115.622 88.0994 116.477 88.0994 117.455ZM106.27 106.545H108.69L113.531 114.693H113.736L118.577 106.545H120.997L114.69 116.807V124H112.577V116.807L106.27 106.545ZM126.925 124.273C125.743 124.273 124.706 123.991 123.814 123.429C122.928 122.866 122.234 122.08 121.734 121.068C121.24 120.057 120.993 118.875 120.993 117.523C120.993 116.159 121.24 114.969 121.734 113.952C122.234 112.935 122.928 112.145 123.814 111.582C124.706 111.02 125.743 110.739 126.925 110.739C128.107 110.739 129.141 111.02 130.027 111.582C130.919 112.145 131.612 112.935 132.107 113.952C132.607 114.969 132.857 116.159 132.857 117.523C132.857 118.875 132.607 120.057 132.107 121.068C131.612 122.08 130.919 122.866 130.027 123.429C129.141 123.991 128.107 124.273 126.925 124.273ZM126.925 122.466C127.822 122.466 128.561 122.236 129.141 121.776C129.72 121.315 130.149 120.71 130.428 119.96C130.706 119.21 130.845 118.398 130.845 117.523C130.845 116.648 130.706 115.832 130.428 115.077C130.149 114.321 129.72 113.71 129.141 113.244C128.561 112.778 127.822 112.545 126.925 112.545C126.027 112.545 125.288 112.778 124.709 113.244C124.129 113.71 123.7 114.321 123.422 115.077C123.143 115.832 123.004 116.648 123.004 117.523C123.004 118.398 123.143 119.21 123.422 119.96C123.7 120.71 124.129 121.315 124.709 121.776C125.288 122.236 126.027 122.466 126.925 122.466ZM144.177 118.648V110.909H146.188V124H144.177V121.784H144.04C143.734 122.449 143.256 123.014 142.609 123.48C141.961 123.94 141.143 124.17 140.154 124.17C139.336 124.17 138.609 123.991 137.972 123.634C137.336 123.27 136.836 122.724 136.472 121.997C136.109 121.264 135.927 120.341 135.927 119.227V110.909H137.938V119.091C137.938 120.045 138.205 120.807 138.739 121.375C139.279 121.943 139.967 122.227 140.802 122.227C141.302 122.227 141.81 122.099 142.327 121.844C142.85 121.588 143.288 121.196 143.64 120.668C143.998 120.139 144.177 119.466 144.177 118.648ZM149.872 124V110.909H151.815V112.886H151.952C152.19 112.239 152.622 111.713 153.247 111.31C153.872 110.906 154.577 110.705 155.361 110.705C155.509 110.705 155.693 110.707 155.915 110.713C156.136 110.719 156.304 110.727 156.418 110.739V112.784C156.349 112.767 156.193 112.741 155.949 112.707C155.71 112.668 155.457 112.648 155.19 112.648C154.554 112.648 153.986 112.781 153.486 113.048C152.991 113.31 152.599 113.673 152.31 114.139C152.026 114.599 151.884 115.125 151.884 115.716V124H149.872ZM165.825 124V106.545H167.938V122.125H176.052V124H165.825ZM179.052 124V110.909H181.063V124H179.052ZM180.075 108.727C179.683 108.727 179.344 108.594 179.06 108.327C178.782 108.06 178.643 107.739 178.643 107.364C178.643 106.989 178.782 106.668 179.06 106.401C179.344 106.134 179.683 106 180.075 106C180.467 106 180.802 106.134 181.08 106.401C181.364 106.668 181.506 106.989 181.506 107.364C181.506 107.739 181.364 108.06 181.08 108.327C180.802 108.594 180.467 108.727 180.075 108.727ZM190.577 110.909V112.614H183.52V110.909H190.577ZM185.634 124V109.102C185.634 108.352 185.81 107.727 186.162 107.227C186.514 106.727 186.972 106.352 187.534 106.102C188.097 105.852 188.69 105.727 189.315 105.727C189.81 105.727 190.213 105.767 190.526 105.847C190.838 105.926 191.071 106 191.224 106.068L190.645 107.807C190.543 107.773 190.401 107.73 190.219 107.679C190.043 107.628 189.81 107.602 189.52 107.602C188.855 107.602 188.375 107.77 188.08 108.105C187.79 108.44 187.645 108.932 187.645 109.58V124H185.634ZM198.345 124.273C197.084 124.273 195.996 123.994 195.081 123.438C194.172 122.875 193.47 122.091 192.976 121.085C192.487 120.074 192.243 118.898 192.243 117.557C192.243 116.216 192.487 115.034 192.976 114.011C193.47 112.983 194.158 112.182 195.038 111.608C195.925 111.028 196.959 110.739 198.141 110.739C198.822 110.739 199.496 110.852 200.161 111.08C200.825 111.307 201.43 111.676 201.976 112.188C202.521 112.693 202.956 113.364 203.28 114.199C203.604 115.034 203.766 116.062 203.766 117.284V118.136H193.675V116.398H201.72C201.72 115.659 201.572 115 201.277 114.42C200.987 113.841 200.572 113.384 200.033 113.048C199.499 112.713 198.868 112.545 198.141 112.545C197.339 112.545 196.646 112.744 196.061 113.142C195.482 113.534 195.036 114.045 194.723 114.676C194.411 115.307 194.254 115.983 194.254 116.705V117.864C194.254 118.852 194.425 119.69 194.766 120.378C195.112 121.06 195.592 121.58 196.206 121.938C196.82 122.29 197.533 122.466 198.345 122.466C198.874 122.466 199.351 122.392 199.777 122.244C200.209 122.091 200.581 121.864 200.893 121.562C201.206 121.256 201.447 120.875 201.618 120.42L203.561 120.966C203.357 121.625 203.013 122.205 202.53 122.705C202.047 123.199 201.45 123.585 200.74 123.864C200.03 124.136 199.232 124.273 198.345 124.273Z" fill="white"/>
<path d="M85.0366 26.5416C82.2352 24.7214 78.2882 23.8113 73.1958 23.8113C68.0162 23.8113 63.4716 24.8622 59.562 26.9533C55.6524 29.0444 52.963 31.363 51.4938 33.8767C50.0246 36.3903 48.4434 40.4316 46.7251 45.9898L41.3961 63.2927C40.1635 67.3015 39.404 70.3027 39.1176 72.3071C38.8312 74.3116 39.0678 76.2185 39.8273 78.0387C40.5868 79.8589 42.056 81.3866 44.2225 82.6217C46.389 83.8569 48.9414 84.4745 51.8674 84.4745C54.3202 84.4745 56.5863 84.0302 58.678 83.131C60.7573 82.2317 62.6748 80.8882 64.4054 79.0896L64.7292 83.261H75.6611L85.2856 52.003H64.9284L62.2016 60.8549H65.7128L63.5837 67.7566C62.7495 70.4653 61.9651 72.2855 61.218 73.2281C60.471 74.1707 59.4749 74.6258 58.2049 74.6258C57.0469 74.6258 56.3995 74.2141 56.275 73.3798C56.138 72.5564 56.4867 70.8336 57.2835 68.2225L65.8871 40.2799C66.8085 37.3112 67.568 35.4585 68.1656 34.7434C68.7757 34.0283 69.6099 33.66 70.6932 33.66C71.9383 33.66 72.5857 34.0825 72.6604 34.9168C72.7351 35.7511 72.2495 37.8421 71.2285 41.1792L69.5975 46.4665H86.9914L87.7634 43.9529C89.2326 39.1856 89.8427 35.5452 89.5937 33.0424C89.3571 30.5288 87.8381 28.3618 85.0366 26.5416Z" fill="white"/>
<path d="M147.889 11.5571L138.451 0.343262L122.103 11.5571H126.635L109.279 67.9298C108.382 70.8335 107.66 72.6754 107.1 73.4555C106.539 74.2355 105.718 74.6256 104.609 74.6256C103.638 74.6256 103.115 74.268 103.016 73.5638C102.916 72.8595 103.252 71.2343 104.037 68.6882L117.484 25.0246H100.09L89.4816 59.4788C87.4646 66.0445 86.2693 70.3567 85.9082 72.4045C85.5471 74.4522 85.8459 76.4025 86.7922 78.2444C87.7385 80.0863 89.5688 81.5923 92.2706 82.7407C94.9725 83.8892 98.3218 84.4634 102.319 84.4634C105.929 84.4634 109.216 83.9759 112.167 83.0116C115.131 82.0365 117.708 80.6171 119.912 78.7319C122.115 76.8467 123.659 75.0156 124.543 73.2279C125.427 71.4402 126.548 68.3415 127.905 63.9318L144.029 11.5463H147.889V11.5571Z" fill="white"/>
<path d="M85.0366 26.5416C82.2352 24.7214 78.2882 23.8113 73.1958 23.8113C68.0162 23.8113 63.4716 24.8622 59.562 26.9533C55.6524 29.0444 52.963 31.363 51.4938 33.8767C50.0246 36.3903 48.4434 40.4316 46.7251 45.9898L41.3961 63.2927C40.1635 67.3015 39.404 70.3027 39.1176 72.3071C38.8312 74.3116 39.0678 76.2185 39.8273 78.0387C40.5868 79.8589 42.056 81.3866 44.2225 82.6217C46.389 83.8569 48.9414 84.4745 51.8674 84.4745C54.3202 84.4745 56.5863 84.0302 58.678 83.131C60.7573 82.2317 62.6748 80.8882 64.4054 79.0896L64.7292 83.261H75.6611L85.2856 52.003H64.9284L62.2016 60.8549H65.7128L63.5837 67.7566C62.7495 70.4653 61.9651 72.2855 61.218 73.2281C60.471 74.1707 59.4749 74.6258 58.2049 74.6258C57.0469 74.6258 56.3995 74.2141 56.275 73.3798C56.138 72.5564 56.4867 70.8336 57.2835 68.2225L65.8871 40.2799C66.8085 37.3112 67.568 35.4585 68.1656 34.7434C68.7757 34.0283 69.6099 33.66 70.6932 33.66C71.9383 33.66 72.5857 34.0825 72.6604 34.9168C72.7351 35.7511 72.2495 37.8421 71.2285 41.1792L69.5975 46.4665H86.9914L87.7634 43.9529C89.2326 39.1856 89.8427 35.5452 89.5937 33.0424C89.3571 30.5288 87.8381 28.3618 85.0366 26.5416Z" fill="white"/>
<path d="M147.889 11.5571L138.451 0.343262L122.103 11.5571H126.635L109.279 67.9298C108.382 70.8335 107.66 72.6754 107.1 73.4555C106.539 74.2355 105.718 74.6256 104.609 74.6256C103.638 74.6256 103.115 74.268 103.016 73.5638C102.916 72.8595 103.252 71.2343 104.037 68.6882L117.484 25.0246H100.09L89.4816 59.4788C87.4646 66.0445 86.2693 70.3567 85.9082 72.4045C85.5471 74.4522 85.8459 76.4025 86.7922 78.2444C87.7385 80.0863 89.5688 81.5923 92.2706 82.7407C94.9725 83.8892 98.3218 84.4634 102.319 84.4634C105.929 84.4634 109.216 83.9759 112.167 83.0116C115.131 82.0365 117.708 80.6171 119.912 78.7319C122.115 76.8467 123.659 75.0156 124.543 73.2279C125.427 71.4402 126.548 68.3415 127.905 63.9318L144.029 11.5463H147.889V11.5571Z" fill="white"/>
</svg>
