<svg width="190" height="129" viewBox="0 0 190 129" fill="none" xmlns="http://www.w3.org/2000/svg">
<path d="M14.5898 114.504V120.75C14.3789 121.062 14.043 121.414 13.582 121.805C13.1211 122.188 12.4844 122.523 11.6719 122.812C10.8672 123.094 9.82812 123.234 8.55469 123.234C7.51562 123.234 6.55859 123.055 5.68359 122.695C4.81641 122.328 4.0625 121.797 3.42188 121.102C2.78906 120.398 2.29688 119.547 1.94531 118.547C1.60156 117.539 1.42969 116.398 1.42969 115.125V113.801C1.42969 112.527 1.57812 111.391 1.875 110.391C2.17969 109.391 2.625 108.543 3.21094 107.848C3.79688 107.145 4.51562 106.613 5.36719 106.254C6.21875 105.887 7.19531 105.703 8.29688 105.703C9.60156 105.703 10.6914 105.93 11.5664 106.383C12.4492 106.828 13.1367 107.445 13.6289 108.234C14.1289 109.023 14.4492 109.922 14.5898 110.93H12.3281C12.2266 110.312 12.0234 109.75 11.7188 109.242C11.4219 108.734 10.9961 108.328 10.4414 108.023C9.88672 107.711 9.17188 107.555 8.29688 107.555C7.50781 107.555 6.82422 107.699 6.24609 107.988C5.66797 108.277 5.19141 108.691 4.81641 109.23C4.44141 109.77 4.16016 110.422 3.97266 111.188C3.79297 111.953 3.70312 112.816 3.70312 113.777V115.125C3.70312 116.109 3.81641 116.988 4.04297 117.762C4.27734 118.535 4.60938 119.195 5.03906 119.742C5.46875 120.281 5.98047 120.691 6.57422 120.973C7.17578 121.254 7.83984 121.395 8.56641 121.395C9.37109 121.395 10.0234 121.328 10.5234 121.195C11.0234 121.055 11.4141 120.891 11.6953 120.703C11.9766 120.508 12.1914 120.324 12.3398 120.152V116.332H8.39062V114.504H14.5898ZM20.3672 105V123H18.1875V105H20.3672ZM23.2734 116.801V116.531C23.2734 115.617 23.4062 114.77 23.6719 113.988C23.9375 113.199 24.3203 112.516 24.8203 111.938C25.3203 111.352 25.9258 110.898 26.6367 110.578C27.3477 110.25 28.1445 110.086 29.0273 110.086C29.918 110.086 30.7188 110.25 31.4297 110.578C32.1484 110.898 32.7578 111.352 33.2578 111.938C33.7656 112.516 34.1523 113.199 34.418 113.988C34.6836 114.77 34.8164 115.617 34.8164 116.531V116.801C34.8164 117.715 34.6836 118.562 34.418 119.344C34.1523 120.125 33.7656 120.809 33.2578 121.395C32.7578 121.973 32.1523 122.426 31.4414 122.754C30.7383 123.074 29.9414 123.234 29.0508 123.234C28.1602 123.234 27.3594 123.074 26.6484 122.754C25.9375 122.426 25.3281 121.973 24.8203 121.395C24.3203 120.809 23.9375 120.125 23.6719 119.344C23.4062 118.562 23.2734 117.715 23.2734 116.801ZM25.4414 116.531V116.801C25.4414 117.434 25.5156 118.031 25.6641 118.594C25.8125 119.148 26.0352 119.641 26.332 120.07C26.6367 120.5 27.0156 120.84 27.4688 121.09C27.9219 121.332 28.4492 121.453 29.0508 121.453C29.6445 121.453 30.1641 121.332 30.6094 121.09C31.0625 120.84 31.4375 120.5 31.7344 120.07C32.0312 119.641 32.2539 119.148 32.4023 118.594C32.5586 118.031 32.6367 117.434 32.6367 116.801V116.531C32.6367 115.906 32.5586 115.316 32.4023 114.762C32.2539 114.199 32.0273 113.703 31.7227 113.273C31.4258 112.836 31.0508 112.492 30.5977 112.242C30.1523 111.992 29.6289 111.867 29.0273 111.867C28.4336 111.867 27.9102 111.992 27.457 112.242C27.0117 112.492 26.6367 112.836 26.332 113.273C26.0352 113.703 25.8125 114.199 25.6641 114.762C25.5156 115.316 25.4414 115.906 25.4414 116.531ZM40.7461 120.75L44.0039 110.32H45.4336L45.1523 112.395L41.8359 123H40.4414L40.7461 120.75ZM38.5547 110.32L41.332 120.867L41.5312 123H40.0664L36.3867 110.32H38.5547ZM48.5508 120.785L51.1992 110.32H53.3555L49.6758 123H48.2227L48.5508 120.785ZM45.75 110.32L48.9375 120.574L49.3008 123H47.918L44.5078 112.371L44.2266 110.32H45.75ZM71.625 105.938H73.875V117.48C73.875 118.762 73.5898 119.828 73.0195 120.68C72.4492 121.531 71.6914 122.172 70.7461 122.602C69.8086 123.023 68.7891 123.234 67.6875 123.234C66.5312 123.234 65.4844 123.023 64.5469 122.602C63.6172 122.172 62.8789 121.531 62.332 120.68C61.793 119.828 61.5234 118.762 61.5234 117.48V105.938H63.7617V117.48C63.7617 118.371 63.9258 119.105 64.2539 119.684C64.582 120.262 65.0391 120.691 65.625 120.973C66.2188 121.254 66.9062 121.395 67.6875 121.395C68.4766 121.395 69.1641 121.254 69.75 120.973C70.3438 120.691 70.8047 120.262 71.1328 119.684C71.4609 119.105 71.625 118.371 71.625 117.48V105.938ZM79.2656 112.758V127.875H77.0859V110.32H79.0781L79.2656 112.758ZM87.8086 116.555V116.801C87.8086 117.723 87.6992 118.578 87.4805 119.367C87.2617 120.148 86.9414 120.828 86.5195 121.406C86.1055 121.984 85.5938 122.434 84.9844 122.754C84.375 123.074 83.6758 123.234 82.8867 123.234C82.082 123.234 81.3711 123.102 80.7539 122.836C80.1367 122.57 79.6133 122.184 79.1836 121.676C78.7539 121.168 78.4102 120.559 78.1523 119.848C77.9023 119.137 77.7305 118.336 77.6367 117.445V116.133C77.7305 115.195 77.9062 114.355 78.1641 113.613C78.4219 112.871 78.7617 112.238 79.1836 111.715C79.6133 111.184 80.1328 110.781 80.7422 110.508C81.3516 110.227 82.0547 110.086 82.8516 110.086C83.6484 110.086 84.3555 110.242 84.9727 110.555C85.5898 110.859 86.1094 111.297 86.5312 111.867C86.9531 112.438 87.2695 113.121 87.4805 113.918C87.6992 114.707 87.8086 115.586 87.8086 116.555ZM85.6289 116.801V116.555C85.6289 115.922 85.5625 115.328 85.4297 114.773C85.2969 114.211 85.0898 113.719 84.8086 113.297C84.5352 112.867 84.1836 112.531 83.7539 112.289C83.3242 112.039 82.8125 111.914 82.2188 111.914C81.6719 111.914 81.1953 112.008 80.7891 112.195C80.3906 112.383 80.0508 112.637 79.7695 112.957C79.4883 113.27 79.2578 113.629 79.0781 114.035C78.9062 114.434 78.7773 114.848 78.6914 115.277V118.312C78.8477 118.859 79.0664 119.375 79.3477 119.859C79.6289 120.336 80.0039 120.723 80.4727 121.02C80.9414 121.309 81.5312 121.453 82.2422 121.453C82.8281 121.453 83.332 121.332 83.7539 121.09C84.1836 120.84 84.5352 120.5 84.8086 120.07C85.0898 119.641 85.2969 119.148 85.4297 118.594C85.5625 118.031 85.6289 117.434 85.6289 116.801ZM97.6406 105.938L102.07 114.504L106.512 105.938H109.078L103.195 116.625V123H100.934V116.625L95.0508 105.938H97.6406ZM109.594 116.801V116.531C109.594 115.617 109.727 114.77 109.992 113.988C110.258 113.199 110.641 112.516 111.141 111.938C111.641 111.352 112.246 110.898 112.957 110.578C113.668 110.25 114.465 110.086 115.348 110.086C116.238 110.086 117.039 110.25 117.75 110.578C118.469 110.898 119.078 111.352 119.578 111.938C120.086 112.516 120.473 113.199 120.738 113.988C121.004 114.77 121.137 115.617 121.137 116.531V116.801C121.137 117.715 121.004 118.562 120.738 119.344C120.473 120.125 120.086 120.809 119.578 121.395C119.078 121.973 118.473 122.426 117.762 122.754C117.059 123.074 116.262 123.234 115.371 123.234C114.48 123.234 113.68 123.074 112.969 122.754C112.258 122.426 111.648 121.973 111.141 121.395C110.641 120.809 110.258 120.125 109.992 119.344C109.727 118.562 109.594 117.715 109.594 116.801ZM111.762 116.531V116.801C111.762 117.434 111.836 118.031 111.984 118.594C112.133 119.148 112.355 119.641 112.652 120.07C112.957 120.5 113.336 120.84 113.789 121.09C114.242 121.332 114.77 121.453 115.371 121.453C115.965 121.453 116.484 121.332 116.93 121.09C117.383 120.84 117.758 120.5 118.055 120.07C118.352 119.641 118.574 119.148 118.723 118.594C118.879 118.031 118.957 117.434 118.957 116.801V116.531C118.957 115.906 118.879 115.316 118.723 114.762C118.574 114.199 118.348 113.703 118.043 113.273C117.746 112.836 117.371 112.492 116.918 112.242C116.473 111.992 115.949 111.867 115.348 111.867C114.754 111.867 114.23 111.992 113.777 112.242C113.332 112.492 112.957 112.836 112.652 113.273C112.355 113.703 112.133 114.199 111.984 114.762C111.836 115.316 111.762 115.906 111.762 116.531ZM131.613 120.07V110.32H133.793V123H131.719L131.613 120.07ZM132.023 117.398L132.926 117.375C132.926 118.219 132.836 119 132.656 119.719C132.484 120.43 132.203 121.047 131.812 121.57C131.422 122.094 130.91 122.504 130.277 122.801C129.645 123.09 128.875 123.234 127.969 123.234C127.352 123.234 126.785 123.145 126.27 122.965C125.762 122.785 125.324 122.508 124.957 122.133C124.59 121.758 124.305 121.27 124.102 120.668C123.906 120.066 123.809 119.344 123.809 118.5V110.32H125.977V118.523C125.977 119.094 126.039 119.566 126.164 119.941C126.297 120.309 126.473 120.602 126.691 120.82C126.918 121.031 127.168 121.18 127.441 121.266C127.723 121.352 128.012 121.395 128.309 121.395C129.23 121.395 129.961 121.219 130.5 120.867C131.039 120.508 131.426 120.027 131.66 119.426C131.902 118.816 132.023 118.141 132.023 117.398ZM139.266 112.312V123H137.098V110.32H139.207L139.266 112.312ZM143.227 110.25L143.215 112.266C143.035 112.227 142.863 112.203 142.699 112.195C142.543 112.18 142.363 112.172 142.16 112.172C141.66 112.172 141.219 112.25 140.836 112.406C140.453 112.562 140.129 112.781 139.863 113.062C139.598 113.344 139.387 113.68 139.23 114.07C139.082 114.453 138.984 114.875 138.938 115.336L138.328 115.688C138.328 114.922 138.402 114.203 138.551 113.531C138.707 112.859 138.945 112.266 139.266 111.75C139.586 111.227 139.992 110.82 140.484 110.531C140.984 110.234 141.578 110.086 142.266 110.086C142.422 110.086 142.602 110.105 142.805 110.145C143.008 110.176 143.148 110.211 143.227 110.25ZM161.859 121.16V123H153.328V121.16H161.859ZM153.773 105.938V123H151.512V105.938H153.773ZM166.477 110.32V123H164.297V110.32H166.477ZM164.133 106.957C164.133 106.605 164.238 106.309 164.449 106.066C164.668 105.824 164.988 105.703 165.41 105.703C165.824 105.703 166.141 105.824 166.359 106.066C166.586 106.309 166.699 106.605 166.699 106.957C166.699 107.293 166.586 107.582 166.359 107.824C166.141 108.059 165.824 108.176 165.41 108.176C164.988 108.176 164.668 108.059 164.449 107.824C164.238 107.582 164.133 107.293 164.133 106.957ZM173.191 123H171.023V108.984C171.023 108.07 171.188 107.301 171.516 106.676C171.852 106.043 172.332 105.566 172.957 105.246C173.582 104.918 174.324 104.754 175.184 104.754C175.434 104.754 175.684 104.77 175.934 104.801C176.191 104.832 176.441 104.879 176.684 104.941L176.566 106.711C176.402 106.672 176.215 106.645 176.004 106.629C175.801 106.613 175.598 106.605 175.395 106.605C174.934 106.605 174.535 106.699 174.199 106.887C173.871 107.066 173.621 107.332 173.449 107.684C173.277 108.035 173.191 108.469 173.191 108.984V123ZM175.887 110.32V111.984H169.02V110.32H175.887ZM183.281 123.234C182.398 123.234 181.598 123.086 180.879 122.789C180.168 122.484 179.555 122.059 179.039 121.512C178.531 120.965 178.141 120.316 177.867 119.566C177.594 118.816 177.457 117.996 177.457 117.105V116.613C177.457 115.582 177.609 114.664 177.914 113.859C178.219 113.047 178.633 112.359 179.156 111.797C179.68 111.234 180.273 110.809 180.938 110.52C181.602 110.23 182.289 110.086 183 110.086C183.906 110.086 184.688 110.242 185.344 110.555C186.008 110.867 186.551 111.305 186.973 111.867C187.395 112.422 187.707 113.078 187.91 113.836C188.113 114.586 188.215 115.406 188.215 116.297V117.27H178.746V115.5H186.047V115.336C186.016 114.773 185.898 114.227 185.695 113.695C185.5 113.164 185.188 112.727 184.758 112.383C184.328 112.039 183.742 111.867 183 111.867C182.508 111.867 182.055 111.973 181.641 112.184C181.227 112.387 180.871 112.691 180.574 113.098C180.277 113.504 180.047 114 179.883 114.586C179.719 115.172 179.637 115.848 179.637 116.613V117.105C179.637 117.707 179.719 118.273 179.883 118.805C180.055 119.328 180.301 119.789 180.621 120.188C180.949 120.586 181.344 120.898 181.805 121.125C182.273 121.352 182.805 121.465 183.398 121.465C184.164 121.465 184.812 121.309 185.344 120.996C185.875 120.684 186.34 120.266 186.738 119.742L188.051 120.785C187.777 121.199 187.43 121.594 187.008 121.969C186.586 122.344 186.066 122.648 185.449 122.883C184.84 123.117 184.117 123.234 183.281 123.234Z" fill="white"/>
<path d="M85.0366 26.5416C82.2352 24.7214 78.2882 23.8113 73.1958 23.8113C68.0162 23.8113 63.4716 24.8622 59.562 26.9533C55.6524 29.0444 52.963 31.363 51.4938 33.8767C50.0246 36.3903 48.4434 40.4316 46.7251 45.9898L41.3961 63.2927C40.1635 67.3015 39.404 70.3027 39.1176 72.3071C38.8312 74.3116 39.0678 76.2185 39.8273 78.0387C40.5868 79.8589 42.056 81.3866 44.2225 82.6217C46.389 83.8569 48.9414 84.4745 51.8674 84.4745C54.3202 84.4745 56.5863 84.0302 58.678 83.131C60.7573 82.2317 62.6748 80.8882 64.4054 79.0896L64.7292 83.261H75.6611L85.2856 52.003H64.9284L62.2016 60.8549H65.7128L63.5837 67.7566C62.7495 70.4653 61.9651 72.2855 61.218 73.2281C60.471 74.1707 59.4749 74.6258 58.2049 74.6258C57.0469 74.6258 56.3995 74.2141 56.275 73.3798C56.138 72.5564 56.4867 70.8336 57.2835 68.2225L65.8871 40.2799C66.8085 37.3112 67.568 35.4585 68.1656 34.7434C68.7757 34.0283 69.6099 33.66 70.6932 33.66C71.9383 33.66 72.5857 34.0825 72.6604 34.9168C72.7351 35.7511 72.2495 37.8421 71.2285 41.1792L69.5975 46.4665H86.9914L87.7634 43.9529C89.2326 39.1856 89.8427 35.5452 89.5937 33.0424C89.3571 30.5288 87.8381 28.3618 85.0366 26.5416Z" fill="white"/>
<path d="M147.889 11.5571L138.451 0.343262L122.103 11.5571H126.635L109.279 67.9298C108.382 70.8335 107.66 72.6754 107.1 73.4555C106.539 74.2355 105.718 74.6256 104.609 74.6256C103.638 74.6256 103.115 74.268 103.016 73.5638C102.916 72.8595 103.252 71.2343 104.037 68.6882L117.484 25.0246H100.09L89.4816 59.4788C87.4646 66.0445 86.2693 70.3567 85.9082 72.4045C85.5471 74.4522 85.8459 76.4025 86.7922 78.2444C87.7385 80.0863 89.5688 81.5923 92.2706 82.7407C94.9725 83.8892 98.3218 84.4634 102.319 84.4634C105.929 84.4634 109.216 83.9759 112.167 83.0116C115.131 82.0365 117.708 80.6171 119.912 78.7319C122.115 76.8467 123.659 75.0156 124.543 73.2279C125.427 71.4402 126.548 68.3415 127.905 63.9318L144.029 11.5463H147.889V11.5571Z" fill="white"/>
<path d="M14.5898 114.504V120.75C14.3789 121.062 14.043 121.414 13.582 121.805C13.1211 122.188 12.4844 122.523 11.6719 122.812C10.8672 123.094 9.82812 123.234 8.55469 123.234C7.51562 123.234 6.55859 123.055 5.68359 122.695C4.81641 122.328 4.0625 121.797 3.42188 121.102C2.78906 120.398 2.29688 119.547 1.94531 118.547C1.60156 117.539 1.42969 116.398 1.42969 115.125V113.801C1.42969 112.527 1.57812 111.391 1.875 110.391C2.17969 109.391 2.625 108.543 3.21094 107.848C3.79688 107.145 4.51562 106.613 5.36719 106.254C6.21875 105.887 7.19531 105.703 8.29688 105.703C9.60156 105.703 10.6914 105.93 11.5664 106.383C12.4492 106.828 13.1367 107.445 13.6289 108.234C14.1289 109.023 14.4492 109.922 14.5898 110.93H12.3281C12.2266 110.312 12.0234 109.75 11.7188 109.242C11.4219 108.734 10.9961 108.328 10.4414 108.023C9.88672 107.711 9.17188 107.555 8.29688 107.555C7.50781 107.555 6.82422 107.699 6.24609 107.988C5.66797 108.277 5.19141 108.691 4.81641 109.23C4.44141 109.77 4.16016 110.422 3.97266 111.188C3.79297 111.953 3.70312 112.816 3.70312 113.777V115.125C3.70312 116.109 3.81641 116.988 4.04297 117.762C4.27734 118.535 4.60938 119.195 5.03906 119.742C5.46875 120.281 5.98047 120.691 6.57422 120.973C7.17578 121.254 7.83984 121.395 8.56641 121.395C9.37109 121.395 10.0234 121.328 10.5234 121.195C11.0234 121.055 11.4141 120.891 11.6953 120.703C11.9766 120.508 12.1914 120.324 12.3398 120.152V116.332H8.39062V114.504H14.5898ZM20.3672 105V123H18.1875V105H20.3672ZM23.2734 116.801V116.531C23.2734 115.617 23.4062 114.77 23.6719 113.988C23.9375 113.199 24.3203 112.516 24.8203 111.938C25.3203 111.352 25.9258 110.898 26.6367 110.578C27.3477 110.25 28.1445 110.086 29.0273 110.086C29.918 110.086 30.7188 110.25 31.4297 110.578C32.1484 110.898 32.7578 111.352 33.2578 111.938C33.7656 112.516 34.1523 113.199 34.418 113.988C34.6836 114.77 34.8164 115.617 34.8164 116.531V116.801C34.8164 117.715 34.6836 118.562 34.418 119.344C34.1523 120.125 33.7656 120.809 33.2578 121.395C32.7578 121.973 32.1523 122.426 31.4414 122.754C30.7383 123.074 29.9414 123.234 29.0508 123.234C28.1602 123.234 27.3594 123.074 26.6484 122.754C25.9375 122.426 25.3281 121.973 24.8203 121.395C24.3203 120.809 23.9375 120.125 23.6719 119.344C23.4062 118.562 23.2734 117.715 23.2734 116.801ZM25.4414 116.531V116.801C25.4414 117.434 25.5156 118.031 25.6641 118.594C25.8125 119.148 26.0352 119.641 26.332 120.07C26.6367 120.5 27.0156 120.84 27.4688 121.09C27.9219 121.332 28.4492 121.453 29.0508 121.453C29.6445 121.453 30.1641 121.332 30.6094 121.09C31.0625 120.84 31.4375 120.5 31.7344 120.07C32.0312 119.641 32.2539 119.148 32.4023 118.594C32.5586 118.031 32.6367 117.434 32.6367 116.801V116.531C32.6367 115.906 32.5586 115.316 32.4023 114.762C32.2539 114.199 32.0273 113.703 31.7227 113.273C31.4258 112.836 31.0508 112.492 30.5977 112.242C30.1523 111.992 29.6289 111.867 29.0273 111.867C28.4336 111.867 27.9102 111.992 27.457 112.242C27.0117 112.492 26.6367 112.836 26.332 113.273C26.0352 113.703 25.8125 114.199 25.6641 114.762C25.5156 115.316 25.4414 115.906 25.4414 116.531ZM40.7461 120.75L44.0039 110.32H45.4336L45.1523 112.395L41.8359 123H40.4414L40.7461 120.75ZM38.5547 110.32L41.332 120.867L41.5312 123H40.0664L36.3867 110.32H38.5547ZM48.5508 120.785L51.1992 110.32H53.3555L49.6758 123H48.2227L48.5508 120.785ZM45.75 110.32L48.9375 120.574L49.3008 123H47.918L44.5078 112.371L44.2266 110.32H45.75ZM71.625 105.938H73.875V117.48C73.875 118.762 73.5898 119.828 73.0195 120.68C72.4492 121.531 71.6914 122.172 70.7461 122.602C69.8086 123.023 68.7891 123.234 67.6875 123.234C66.5312 123.234 65.4844 123.023 64.5469 122.602C63.6172 122.172 62.8789 121.531 62.332 120.68C61.793 119.828 61.5234 118.762 61.5234 117.48V105.938H63.7617V117.48C63.7617 118.371 63.9258 119.105 64.2539 119.684C64.582 120.262 65.0391 120.691 65.625 120.973C66.2188 121.254 66.9062 121.395 67.6875 121.395C68.4766 121.395 69.1641 121.254 69.75 120.973C70.3438 120.691 70.8047 120.262 71.1328 119.684C71.4609 119.105 71.625 118.371 71.625 117.48V105.938ZM79.2656 112.758V127.875H77.0859V110.32H79.0781L79.2656 112.758ZM87.8086 116.555V116.801C87.8086 117.723 87.6992 118.578 87.4805 119.367C87.2617 120.148 86.9414 120.828 86.5195 121.406C86.1055 121.984 85.5938 122.434 84.9844 122.754C84.375 123.074 83.6758 123.234 82.8867 123.234C82.082 123.234 81.3711 123.102 80.7539 122.836C80.1367 122.57 79.6133 122.184 79.1836 121.676C78.7539 121.168 78.4102 120.559 78.1523 119.848C77.9023 119.137 77.7305 118.336 77.6367 117.445V116.133C77.7305 115.195 77.9062 114.355 78.1641 113.613C78.4219 112.871 78.7617 112.238 79.1836 111.715C79.6133 111.184 80.1328 110.781 80.7422 110.508C81.3516 110.227 82.0547 110.086 82.8516 110.086C83.6484 110.086 84.3555 110.242 84.9727 110.555C85.5898 110.859 86.1094 111.297 86.5312 111.867C86.9531 112.438 87.2695 113.121 87.4805 113.918C87.6992 114.707 87.8086 115.586 87.8086 116.555ZM85.6289 116.801V116.555C85.6289 115.922 85.5625 115.328 85.4297 114.773C85.2969 114.211 85.0898 113.719 84.8086 113.297C84.5352 112.867 84.1836 112.531 83.7539 112.289C83.3242 112.039 82.8125 111.914 82.2188 111.914C81.6719 111.914 81.1953 112.008 80.7891 112.195C80.3906 112.383 80.0508 112.637 79.7695 112.957C79.4883 113.27 79.2578 113.629 79.0781 114.035C78.9062 114.434 78.7773 114.848 78.6914 115.277V118.312C78.8477 118.859 79.0664 119.375 79.3477 119.859C79.6289 120.336 80.0039 120.723 80.4727 121.02C80.9414 121.309 81.5312 121.453 82.2422 121.453C82.8281 121.453 83.332 121.332 83.7539 121.09C84.1836 120.84 84.5352 120.5 84.8086 120.07C85.0898 119.641 85.2969 119.148 85.4297 118.594C85.5625 118.031 85.6289 117.434 85.6289 116.801ZM97.6406 105.938L102.07 114.504L106.512 105.938H109.078L103.195 116.625V123H100.934V116.625L95.0508 105.938H97.6406ZM109.594 116.801V116.531C109.594 115.617 109.727 114.77 109.992 113.988C110.258 113.199 110.641 112.516 111.141 111.938C111.641 111.352 112.246 110.898 112.957 110.578C113.668 110.25 114.465 110.086 115.348 110.086C116.238 110.086 117.039 110.25 117.75 110.578C118.469 110.898 119.078 111.352 119.578 111.938C120.086 112.516 120.473 113.199 120.738 113.988C121.004 114.77 121.137 115.617 121.137 116.531V116.801C121.137 117.715 121.004 118.562 120.738 119.344C120.473 120.125 120.086 120.809 119.578 121.395C119.078 121.973 118.473 122.426 117.762 122.754C117.059 123.074 116.262 123.234 115.371 123.234C114.48 123.234 113.68 123.074 112.969 122.754C112.258 122.426 111.648 121.973 111.141 121.395C110.641 120.809 110.258 120.125 109.992 119.344C109.727 118.562 109.594 117.715 109.594 116.801ZM111.762 116.531V116.801C111.762 117.434 111.836 118.031 111.984 118.594C112.133 119.148 112.355 119.641 112.652 120.07C112.957 120.5 113.336 120.84 113.789 121.09C114.242 121.332 114.77 121.453 115.371 121.453C115.965 121.453 116.484 121.332 116.93 121.09C117.383 120.84 117.758 120.5 118.055 120.07C118.352 119.641 118.574 119.148 118.723 118.594C118.879 118.031 118.957 117.434 118.957 116.801V116.531C118.957 115.906 118.879 115.316 118.723 114.762C118.574 114.199 118.348 113.703 118.043 113.273C117.746 112.836 117.371 112.492 116.918 112.242C116.473 111.992 115.949 111.867 115.348 111.867C114.754 111.867 114.23 111.992 113.777 112.242C113.332 112.492 112.957 112.836 112.652 113.273C112.355 113.703 112.133 114.199 111.984 114.762C111.836 115.316 111.762 115.906 111.762 116.531ZM131.613 120.07V110.32H133.793V123H131.719L131.613 120.07ZM132.023 117.398L132.926 117.375C132.926 118.219 132.836 119 132.656 119.719C132.484 120.43 132.203 121.047 131.812 121.57C131.422 122.094 130.91 122.504 130.277 122.801C129.645 123.09 128.875 123.234 127.969 123.234C127.352 123.234 126.785 123.145 126.27 122.965C125.762 122.785 125.324 122.508 124.957 122.133C124.59 121.758 124.305 121.27 124.102 120.668C123.906 120.066 123.809 119.344 123.809 118.5V110.32H125.977V118.523C125.977 119.094 126.039 119.566 126.164 119.941C126.297 120.309 126.473 120.602 126.691 120.82C126.918 121.031 127.168 121.18 127.441 121.266C127.723 121.352 128.012 121.395 128.309 121.395C129.23 121.395 129.961 121.219 130.5 120.867C131.039 120.508 131.426 120.027 131.66 119.426C131.902 118.816 132.023 118.141 132.023 117.398ZM139.266 112.312V123H137.098V110.32H139.207L139.266 112.312ZM143.227 110.25L143.215 112.266C143.035 112.227 142.863 112.203 142.699 112.195C142.543 112.18 142.363 112.172 142.16 112.172C141.66 112.172 141.219 112.25 140.836 112.406C140.453 112.562 140.129 112.781 139.863 113.062C139.598 113.344 139.387 113.68 139.23 114.07C139.082 114.453 138.984 114.875 138.938 115.336L138.328 115.688C138.328 114.922 138.402 114.203 138.551 113.531C138.707 112.859 138.945 112.266 139.266 111.75C139.586 111.227 139.992 110.82 140.484 110.531C140.984 110.234 141.578 110.086 142.266 110.086C142.422 110.086 142.602 110.105 142.805 110.145C143.008 110.176 143.148 110.211 143.227 110.25ZM161.859 121.16V123H153.328V121.16H161.859ZM153.773 105.938V123H151.512V105.938H153.773ZM166.477 110.32V123H164.297V110.32H166.477ZM164.133 106.957C164.133 106.605 164.238 106.309 164.449 106.066C164.668 105.824 164.988 105.703 165.41 105.703C165.824 105.703 166.141 105.824 166.359 106.066C166.586 106.309 166.699 106.605 166.699 106.957C166.699 107.293 166.586 107.582 166.359 107.824C166.141 108.059 165.824 108.176 165.41 108.176C164.988 108.176 164.668 108.059 164.449 107.824C164.238 107.582 164.133 107.293 164.133 106.957ZM173.191 123H171.023V108.984C171.023 108.07 171.188 107.301 171.516 106.676C171.852 106.043 172.332 105.566 172.957 105.246C173.582 104.918 174.324 104.754 175.184 104.754C175.434 104.754 175.684 104.77 175.934 104.801C176.191 104.832 176.441 104.879 176.684 104.941L176.566 106.711C176.402 106.672 176.215 106.645 176.004 106.629C175.801 106.613 175.598 106.605 175.395 106.605C174.934 106.605 174.535 106.699 174.199 106.887C173.871 107.066 173.621 107.332 173.449 107.684C173.277 108.035 173.191 108.469 173.191 108.984V123ZM175.887 110.32V111.984H169.02V110.32H175.887ZM183.281 123.234C182.398 123.234 181.598 123.086 180.879 122.789C180.168 122.484 179.555 122.059 179.039 121.512C178.531 120.965 178.141 120.316 177.867 119.566C177.594 118.816 177.457 117.996 177.457 117.105V116.613C177.457 115.582 177.609 114.664 177.914 113.859C178.219 113.047 178.633 112.359 179.156 111.797C179.68 111.234 180.273 110.809 180.938 110.52C181.602 110.23 182.289 110.086 183 110.086C183.906 110.086 184.688 110.242 185.344 110.555C186.008 110.867 186.551 111.305 186.973 111.867C187.395 112.422 187.707 113.078 187.91 113.836C188.113 114.586 188.215 115.406 188.215 116.297V117.27H178.746V115.5H186.047V115.336C186.016 114.773 185.898 114.227 185.695 113.695C185.5 113.164 185.188 112.727 184.758 112.383C184.328 112.039 183.742 111.867 183 111.867C182.508 111.867 182.055 111.973 181.641 112.184C181.227 112.387 180.871 112.691 180.574 113.098C180.277 113.504 180.047 114 179.883 114.586C179.719 115.172 179.637 115.848 179.637 116.613V117.105C179.637 117.707 179.719 118.273 179.883 118.805C180.055 119.328 180.301 119.789 180.621 120.188C180.949 120.586 181.344 120.898 181.805 121.125C182.273 121.352 182.805 121.465 183.398 121.465C184.164 121.465 184.812 121.309 185.344 120.996C185.875 120.684 186.34 120.266 186.738 119.742L188.051 120.785C187.777 121.199 187.43 121.594 187.008 121.969C186.586 122.344 186.066 122.648 185.449 122.883C184.84 123.117 184.117 123.234 183.281 123.234Z" fill="white"/>
<path d="M85.0366 26.5416C82.2352 24.7214 78.2882 23.8113 73.1958 23.8113C68.0162 23.8113 63.4716 24.8622 59.562 26.9533C55.6524 29.0444 52.963 31.363 51.4938 33.8767C50.0246 36.3903 48.4434 40.4316 46.7251 45.9898L41.3961 63.2927C40.1635 67.3015 39.404 70.3027 39.1176 72.3071C38.8312 74.3116 39.0678 76.2185 39.8273 78.0387C40.5868 79.8589 42.056 81.3866 44.2225 82.6217C46.389 83.8569 48.9414 84.4745 51.8674 84.4745C54.3202 84.4745 56.5863 84.0302 58.678 83.131C60.7573 82.2317 62.6748 80.8882 64.4054 79.0896L64.7292 83.261H75.6611L85.2856 52.003H64.9284L62.2016 60.8549H65.7128L63.5837 67.7566C62.7495 70.4653 61.9651 72.2855 61.218 73.2281C60.471 74.1707 59.4749 74.6258 58.2049 74.6258C57.0469 74.6258 56.3995 74.2141 56.275 73.3798C56.138 72.5564 56.4867 70.8336 57.2835 68.2225L65.8871 40.2799C66.8085 37.3112 67.568 35.4585 68.1656 34.7434C68.7757 34.0283 69.6099 33.66 70.6932 33.66C71.9383 33.66 72.5857 34.0825 72.6604 34.9168C72.7351 35.7511 72.2495 37.8421 71.2285 41.1792L69.5975 46.4665H86.9914L87.7634 43.9529C89.2326 39.1856 89.8427 35.5452 89.5937 33.0424C89.3571 30.5288 87.8381 28.3618 85.0366 26.5416Z" fill="white"/>
<path d="M147.889 11.5571L138.451 0.343262L122.103 11.5571H126.635L109.279 67.9298C108.382 70.8335 107.66 72.6754 107.1 73.4555C106.539 74.2355 105.718 74.6256 104.609 74.6256C103.638 74.6256 103.115 74.268 103.016 73.5638C102.916 72.8595 103.252 71.2343 104.037 68.6882L117.484 25.0246H100.09L89.4816 59.4788C87.4646 66.0445 86.2693 70.3567 85.9082 72.4045C85.5471 74.4522 85.8459 76.4025 86.7922 78.2444C87.7385 80.0863 89.5688 81.5923 92.2706 82.7407C94.9725 83.8892 98.3218 84.4634 102.319 84.4634C105.929 84.4634 109.216 83.9759 112.167 83.0116C115.131 82.0365 117.708 80.6171 119.912 78.7319C122.115 76.8467 123.659 75.0156 124.543 73.2279C125.427 71.4402 126.548 68.3415 127.905 63.9318L144.029 11.5463H147.889V11.5571Z" fill="white"/>
</svg>
