<svg width="90" height="30" viewBox="0 0 90 30" fill="none" xmlns="http://www.w3.org/2000/svg">
<g clip-path="url(#clip0_56_172)">
<path d="M18.99 10.4899C18.33 10.4899 17.66 10.4899 17 10.4899C15.67 10.4899 14.34 10.5399 13.01 10.4699C11.86 10.4099 11.4 10.7699 11.39 11.9999C11.39 13.2699 11.93 13.5399 13.04 13.4899C14.45 13.4299 15.87 13.5499 17.28 13.4599C19.08 13.3299 19.21 14.1199 18.67 15.5399C17.11 19.6999 10.97 21.1899 7.01001 18.3399C3.36001 15.7099 2.35001 10.8499 4.68001 7.05988C7.05001 3.19988 11.82 1.98988 15.97 4.45988C17.45 5.33988 18.12 4.69988 18.83 3.76988C19.77 2.52988 18.37 2.22988 17.78 1.81988C13.82 -0.940121 8.10001 -0.510122 4.10001 2.75988C0.280008 5.89988 -1.04999 11.2899 0.880008 15.8299C2.92001 20.6199 7.89001 23.4899 13.16 22.9099C17.81 22.3999 21.27 19.0899 22.18 14.2799C22.84 10.7599 22.61 10.4899 18.99 10.4899Z" fill="#5186EC"/>
<path d="M69.83 9.85988C69.84 8.90988 69.29 8.16988 68.54 8.60988C66.51 9.78988 64.87 8.25988 63.05 8.12988C61.34 7.99988 59.78 8.60988 58.44 9.66988C55.46 12.0399 54.7 16.1099 56.61 19.2699C58.72 22.7599 62.08 23.5799 66.5 21.6799C66.61 24.2299 66.04 25.5899 64.41 26.1899C62.48 26.8999 60.78 26.4799 59.56 24.7699C58.52 23.3099 57.56 24.4799 56.82 24.9299C55.8 25.5399 56.83 26.2499 57.19 26.7499C58.78 28.9499 61.99 29.9499 64.79 29.1899C67.94 28.3299 69.52 26.0499 69.69 23.0199C69.92 18.6499 69.78 14.2499 69.83 9.85988ZM63.02 19.9499C60.75 20.0099 58.88 18.0499 58.87 15.5799C58.85 13.0699 60.6 11.0799 62.87 11.0199C64.97 10.9699 66.77 12.8899 66.87 15.2899C66.97 17.8299 65.27 19.8899 63.02 19.9499Z" fill="#5186EC"/>
<path d="M89.37 19.3099C88.68 18.5899 87.86 17.5299 86.52 18.8699C85.08 20.3099 83.23 20.4399 81.49 19.2799C80.44 18.5799 79.86 17.7599 81.67 17.1199C83.47 16.4799 85.21 15.6899 86.97 14.9599C90.34 13.5599 90.52 12.4599 87.79 9.89995C87.06 9.20995 86.22 8.69995 85.23 8.41995C82.45 7.65995 80.05 8.37995 78.25 10.5199C76.21 12.9399 75.84 15.7599 77.16 18.6799C78.41 21.4699 80.74 22.6899 83.53 22.9399C85.5 22.8899 87.17 22.3999 88.49 21.1499C88.97 20.6899 90.31 20.2899 89.37 19.3099ZM83.14 11.0299C84.23 10.7999 85.62 11.0499 85.89 12.1199C86.16 13.1799 84.67 13.1199 83.94 13.4799C82.71 14.0899 81.4 14.5499 79.92 15.1599C79.78 12.5599 81.11 11.4499 83.14 11.0299Z" fill="#D85141"/>
<path d="M30.8 8.04991C26.69 8.11991 23.37 11.5499 23.48 15.6299C23.58 19.6399 26.88 22.8699 30.88 22.8799C34.96 22.8899 38.36 19.4799 38.33 15.4099C38.3 11.3199 34.89 7.97991 30.8 8.04991ZM31.08 19.9499C28.68 20.0599 26.82 18.1099 26.82 15.4699C26.82 12.9099 28.5 11.0399 30.83 10.9999C33.15 10.9599 34.92 12.8299 34.97 15.3499C35.03 17.8899 33.38 19.8399 31.08 19.9499Z" fill="#D85141"/>
<path d="M46.99 8.04986C42.93 7.98986 39.48 11.3699 39.46 15.4299C39.44 19.4899 42.86 22.9099 46.92 22.8899C50.95 22.8699 54.4 19.3699 54.33 15.3699C54.26 11.3899 50.97 8.10986 46.99 8.04986ZM46.77 19.9499C44.44 19.8799 42.8 17.9999 42.82 15.4199C42.84 12.8399 44.52 11.0099 46.87 10.9999C49.3 10.9999 51.02 12.9599 50.95 15.6499C50.89 18.1899 49.11 20.0199 46.77 19.9499Z" fill="#F1BD43"/>
<path d="M74.87 11.84C74.87 8.77997 74.84 5.71997 74.88 2.65997C74.89 1.61997 74.79 0.949971 73.45 0.979971C72.32 1.00997 71.83 1.23997 71.85 2.48997C71.9 8.77997 71.9 15.07 71.86 21.35C71.85 22.52 72.22 22.92 73.42 22.93C74.72 22.94 74.91 22.34 74.89 21.27C74.84 18.12 74.87 14.98 74.87 11.84Z" fill="#58A45D"/>
</g>
<defs>
<clipPath id="clip0_56_172">
<rect width="89.7" height="29.45" fill="white"/>
</clipPath>
</defs>
</svg>
